<svg xmlns="http://www.w3.org/2000/svg" xmlns:xlink="http://www.w3.org/1999/xlink" width="105" zoomAndPan="magnify" viewBox="0 0 78.75 77.249999" height="103" preserveAspectRatio="xMidYMid meet" version="1.0"><defs><clipPath id="c91e279f50"><path d="M 8 23 L 54 23 L 54 68 L 8 68 Z M 8 23 " clip-rule="nonzero"/></clipPath><clipPath id="9f4d014393"><path d="M 17.382812 75.941406 L 0.253906 58.195312 L 36.652344 23.066406 L 53.78125 40.816406 Z M 17.382812 75.941406 " clip-rule="nonzero"/></clipPath><clipPath id="ba02423a90"><path d="M 8.820312 67.070312 L 36.613281 23.105469 L 53.742188 40.855469 Z M 8.820312 67.070312 " clip-rule="nonzero"/></clipPath><clipPath id="59e2d5ce33"><path d="M 8 23 L 54 23 L 54 68 L 8 68 Z M 8 23 " clip-rule="nonzero"/></clipPath><clipPath id="27345aaf19"><path d="M 17.382812 75.941406 L 0.363281 58.304688 L 36.707031 23.230469 L 53.726562 40.867188 Z M 17.382812 75.941406 " clip-rule="nonzero"/></clipPath><clipPath id="66f5f8b9aa"><path d="M 17.382812 75.941406 L 0.0507812 57.980469 L 37.769531 21.578125 L 55.101562 39.539062 Z M 17.382812 75.941406 " clip-rule="nonzero"/></clipPath><clipPath id="9312ea9d36"><path d="M 8.820312 67.070312 L 36.609375 23.113281 L 53.738281 40.859375 Z M 8.820312 67.070312 " clip-rule="nonzero"/></clipPath><clipPath id="f74f506d80"><path d="M 36 20 L 58 20 L 58 41 L 36 41 Z M 36 20 " clip-rule="nonzero"/></clipPath><clipPath id="7a2d3d8fd0"><path d="M 49.007812 11.144531 L 66.164062 28.921875 L 53.765625 40.890625 L 36.609375 23.113281 Z M 49.007812 11.144531 " clip-rule="nonzero"/></clipPath><clipPath id="e15ea8faeb"><path d="M 57.574219 20.019531 L 53.738281 40.863281 L 36.609375 23.113281 Z M 57.574219 20.019531 " clip-rule="nonzero"/></clipPath><clipPath id="7f3442a20b"><path d="M 36 20 L 58 20 L 58 41 L 36 41 Z M 36 20 " clip-rule="nonzero"/></clipPath><clipPath id="09713cf9f0"><path d="M 49.007812 11.144531 L 66.03125 28.78125 L 53.738281 40.648438 L 36.714844 23.007812 Z M 49.007812 11.144531 " clip-rule="nonzero"/></clipPath><clipPath id="e1b3e60395"><path d="M 49.011719 11.148438 L 66.339844 29.101562 L 53.773438 41.234375 L 36.445312 23.277344 Z M 49.011719 11.148438 " clip-rule="nonzero"/></clipPath><clipPath id="c5d162aff4"><path d="M 57.574219 20.019531 L 53.738281 40.847656 L 36.621094 23.109375 Z M 57.574219 20.019531 " clip-rule="nonzero"/></clipPath><clipPath id="1b6a8d5664"><path d="M 47 5 L 73 5 L 73 30 L 47 30 Z M 47 5 " clip-rule="nonzero"/></clipPath><clipPath id="071b076e98"><path d="M 42.8125 17.128906 L 60.5625 0 L 77.691406 17.746094 L 59.941406 34.875 Z M 42.8125 17.128906 " clip-rule="nonzero"/></clipPath><clipPath id="0e17106953"><path d="M 51.6875 8.5625 C 46.789062 13.292969 46.648438 21.101562 51.378906 26.003906 C 56.109375 30.902344 63.917969 31.042969 68.816406 26.3125 C 73.71875 21.582031 73.859375 13.773438 69.128906 8.871094 C 64.398438 3.972656 56.589844 3.832031 51.6875 8.5625 Z M 51.6875 8.5625 " clip-rule="nonzero"/></clipPath><clipPath id="a7477aa7f3"><path d="M 47 5 L 73 5 L 73 30 L 47 30 Z M 47 5 " clip-rule="nonzero"/></clipPath><clipPath id="165daddde7"><path d="M 42.8125 17.128906 L 60.453125 0.105469 L 77.472656 17.742188 L 59.835938 34.765625 Z M 42.8125 17.128906 " clip-rule="nonzero"/></clipPath><clipPath id="ecf9de2455"><path d="M 42.8125 17.128906 L 60.558594 0 L 77.6875 17.746094 L 59.941406 34.875 Z M 42.8125 17.128906 " clip-rule="nonzero"/></clipPath><clipPath id="e5b4e591d6"><path d="M 51.6875 8.5625 C 46.785156 13.292969 46.648438 21.101562 51.378906 26 C 56.105469 30.902344 63.914062 31.039062 68.8125 26.308594 C 73.714844 21.582031 73.851562 13.773438 69.125 8.875 C 64.394531 3.972656 56.585938 3.835938 51.6875 8.5625 Z M 51.6875 8.5625 " clip-rule="nonzero"/></clipPath></defs><g clip-path="url(#c91e279f50)"><g clip-path="url(#9f4d014393)"><g clip-path="url(#ba02423a90)"><path fill="#737373" d="M 17.382812 75.941406 L 0.253906 58.195312 L 36.585938 23.132812 L 53.714844 40.882812 Z M 17.382812 75.941406 " fill-opacity="1" fill-rule="nonzero"/></g></g></g><g clip-path="url(#59e2d5ce33)"><g clip-path="url(#27345aaf19)"><g clip-path="url(#66f5f8b9aa)"><g clip-path="url(#9312ea9d36)"><path stroke-linecap="butt" transform="matrix(-0.515819, -0.534477, 0.534477, -0.515819, 17.383771, 75.942964)" fill="none" stroke-linejoin="miter" d="M 16.601133 -0.000529241 L 33.203147 68.01491 L -0.00174585 68.017158 Z M 16.601133 -0.000529241 " stroke="#eeeeee" stroke-width="8" stroke-opacity="1" stroke-miterlimit="4"/></g></g></g></g><g clip-path="url(#f74f506d80)"><g clip-path="url(#7a2d3d8fd0)"><g clip-path="url(#e15ea8faeb)"><path fill="#737373" d="M 49.007812 11.144531 L 66.117188 28.875 L 53.71875 40.839844 L 36.609375 23.113281 Z M 49.007812 11.144531 " fill-opacity="1" fill-rule="nonzero"/></g></g></g><g clip-path="url(#7f3442a20b)"><g clip-path="url(#09713cf9f0)"><g clip-path="url(#e1b3e60395)"><g clip-path="url(#c5d162aff4)"><path stroke-linecap="butt" transform="matrix(0.515819, 0.534477, -0.534477, 0.515819, 49.012883, 11.149142)" fill="none" stroke-linejoin="miter" d="M 16.59696 -0.000588574 L 33.187377 23.187657 L 0.0010034 23.185857 Z M 16.59696 -0.000588574 " stroke="#eeeeee" stroke-width="8" stroke-opacity="1" stroke-miterlimit="4"/></g></g></g></g><g clip-path="url(#1b6a8d5664)"><g clip-path="url(#071b076e98)"><g clip-path="url(#0e17106953)"><path fill="#ffffff" d="M 42.8125 17.128906 L 60.5625 0 L 77.691406 17.746094 L 59.941406 34.875 Z M 42.8125 17.128906 " fill-opacity="1" fill-rule="nonzero"/></g></g></g><g clip-path="url(#a7477aa7f3)"><g clip-path="url(#165daddde7)"><g clip-path="url(#ecf9de2455)"><g clip-path="url(#e5b4e591d6)"><path stroke-linecap="butt" transform="matrix(0.534477, -0.515819, 0.515819, 0.534477, 42.814003, 17.12753)" fill="none" stroke-linejoin="miter" d="M 16.603422 -0.00126441 C 7.431885 -0.00197679 -0.000838512 7.434556 0.00210108 16.602308 C -0.00239537 25.770193 7.434137 33.202917 16.601889 33.199977 C 25.769774 33.204473 33.202498 25.767941 33.203343 16.603841 C 33.204055 7.432304 25.767523 -0.000419931 16.603422 -0.00126441 Z M 16.603422 -0.00126441 " stroke="#a6a6a6" stroke-width="20" stroke-opacity="1" stroke-miterlimit="4"/></g></g></g></g></svg>