<svg xmlns="http://www.w3.org/2000/svg" xmlns:xlink="http://www.w3.org/1999/xlink" width="1024" zoomAndPan="magnify" viewBox="0 0 768 767.999994" height="1024" preserveAspectRatio="xMidYMid meet" version="1.0"><defs><clipPath id="0e15e9147e"><path d="M 384 0 C 171.921875 0 0 171.921875 0 384 C 0 596.078125 171.921875 768 384 768 C 596.078125 768 768 596.078125 768 384 C 768 171.921875 596.078125 0 384 0 Z M 384 0 " clip-rule="nonzero"/></clipPath><clipPath id="eeb57a04c5"><path d="M 337.796875 337.796875 L 430.203125 337.796875 L 430.203125 430.203125 L 337.796875 430.203125 Z M 337.796875 337.796875 " clip-rule="nonzero"/></clipPath><clipPath id="6c613ed908"><path d="M 384 337.796875 C 358.484375 337.796875 337.796875 358.484375 337.796875 384 C 337.796875 409.515625 358.484375 430.203125 384 430.203125 C 409.515625 430.203125 430.203125 409.515625 430.203125 384 C 430.203125 358.484375 409.515625 337.796875 384 337.796875 Z M 384 337.796875 " clip-rule="nonzero"/></clipPath><clipPath id="7cb3389594"><path d="M 337.796875 337.796875 L 430.046875 337.796875 L 430.046875 430.046875 L 337.796875 430.046875 Z M 337.796875 337.796875 " clip-rule="nonzero"/></clipPath><clipPath id="9b5f3e8617"><path d="M 384 337.796875 C 358.484375 337.796875 337.796875 358.484375 337.796875 384 C 337.796875 409.515625 358.484375 430.199219 384 430.199219 C 409.515625 430.199219 430.199219 409.515625 430.199219 384 C 430.199219 358.484375 409.515625 337.796875 384 337.796875 Z M 384 337.796875 " clip-rule="nonzero"/></clipPath><clipPath id="262a0f7798"><path d="M 687.441406 372.140625 L 736 372.140625 L 736 395.851562 L 687.441406 395.851562 Z M 687.441406 372.140625 " clip-rule="nonzero"/></clipPath><clipPath id="f4da9204ed"><path d="M 687.441406 383.996094 L 736.011719 372.140625 L 736.011719 395.851562 Z M 687.441406 383.996094 " clip-rule="nonzero"/></clipPath><clipPath id="4d17dc7627"><path d="M 736.003906 372.144531 L 752.570312 372.144531 L 752.570312 395.890625 L 736.003906 395.890625 Z M 736.003906 372.144531 " clip-rule="nonzero"/></clipPath><clipPath id="27935cd7e8"><path d="M 752.570312 384 L 736.003906 395.851562 L 736.003906 372.144531 Z M 752.570312 384 " clip-rule="nonzero"/></clipPath><clipPath id="7fde6056c0"><path d="M 736.070312 372.148438 L 752.570312 372.148438 L 752.570312 396 L 736.070312 396 Z M 736.070312 372.148438 " clip-rule="nonzero"/></clipPath><clipPath id="78974477b3"><path d="M 752.570312 383.996094 L 736.011719 395.847656 L 736.011719 372.148438 Z M 752.570312 383.996094 " clip-rule="nonzero"/></clipPath><clipPath id="a78b0f8e40"><path d="M 744.292969 372.144531 L 768 372.144531 L 768 395.855469 L 744.292969 395.855469 Z M 744.292969 372.144531 " clip-rule="nonzero"/></clipPath><clipPath id="68172ab207"><path d="M 756.144531 372.144531 C 749.597656 372.144531 744.292969 377.453125 744.292969 384 C 744.292969 390.546875 749.597656 395.855469 756.144531 395.855469 C 762.691406 395.855469 768 390.546875 768 384 C 768 377.453125 762.691406 372.144531 756.144531 372.144531 Z M 756.144531 372.144531 " clip-rule="nonzero"/></clipPath><clipPath id="f76d1af47a"><path d="M 744.292969 372.144531 L 768 372.144531 L 768 395.851562 L 744.292969 395.851562 Z M 744.292969 372.144531 " clip-rule="nonzero"/></clipPath><clipPath id="57e326b151"><path d="M 756.144531 372.144531 C 749.597656 372.144531 744.292969 377.453125 744.292969 384 C 744.292969 390.546875 749.597656 395.851562 756.144531 395.851562 C 762.691406 395.851562 768 390.546875 768 384 C 768 377.453125 762.691406 372.144531 756.144531 372.144531 Z M 756.144531 372.144531 " clip-rule="nonzero"/></clipPath></defs><g clip-path="url(#0e15e9147e)"><path stroke-linecap="butt" transform="matrix(0.75, 0, 0, 0.75, 0.000003, 0.00002)" fill="none" stroke-linejoin="miter" d="M 512.000021 -0.0000266667 C 229.229174 -0.0000266667 -0.000004 229.229151 -0.000004 511.999999 C -0.000004 794.770846 229.229174 1024.000024 512.000021 1024.000024 C 794.770869 1024.000024 1024.000047 794.770846 1024.000047 511.999999 C 1024.000047 229.229151 794.770869 -0.0000266667 512.000021 -0.0000266667 Z M 512.000021 -0.0000266667 " stroke="#eeeeee" stroke-width="50" stroke-opacity="1" stroke-miterlimit="4"/></g><g clip-path="url(#eeb57a04c5)"><g clip-path="url(#6c613ed908)"><path fill="#ffffff" d="M 337.796875 337.796875 L 430.203125 337.796875 L 430.203125 430.203125 L 337.796875 430.203125 Z M 337.796875 337.796875 " fill-opacity="1" fill-rule="nonzero"/></g></g><g clip-path="url(#7cb3389594)"><g clip-path="url(#9b5f3e8617)"><path stroke-linecap="butt" transform="matrix(0.75, 0, 0, 0.75, 337.797701, 337.797718)" fill="none" stroke-linejoin="miter" d="M 61.603068 -0.00112465 C 27.582233 -0.00112465 -0.00110198 27.58221 -0.00110198 61.603045 C -0.00110198 95.62388 27.582233 123.202006 61.603068 123.202006 C 95.623903 123.202006 123.202029 95.62388 123.202029 61.603045 C 123.202029 27.58221 95.623903 -0.00112465 61.603068 -0.00112465 Z M 61.603068 -0.00112465 " stroke="#f5f5f5" stroke-width="32" stroke-opacity="1" stroke-miterlimit="4"/></g></g><g clip-path="url(#262a0f7798)"><g clip-path="url(#f4da9204ed)"><path fill="#737373" d="M 687.441406 395.851562 L 687.441406 372.140625 L 735.972656 372.140625 L 735.972656 395.851562 Z M 687.441406 395.851562 " fill-opacity="1" fill-rule="nonzero"/></g></g><g clip-path="url(#4d17dc7627)"><g clip-path="url(#27935cd7e8)"><path fill="#737373" d="M 752.570312 372.144531 L 752.570312 395.824219 L 736.003906 395.824219 L 736.003906 372.144531 Z M 752.570312 372.144531 " fill-opacity="1" fill-rule="nonzero"/></g></g><g clip-path="url(#7fde6056c0)"><g clip-path="url(#78974477b3)"><path stroke-linecap="butt" transform="matrix(0, 0.75, -0.75, 0, 752.569598, 372.146778)" fill="none" stroke-linejoin="miter" d="M 15.799088 -0.000952982 L 31.601172 22.077173 L 0.00221215 22.077173 Z M 15.799088 -0.000952982 " stroke="#d9d9d9" stroke-width="8" stroke-opacity="1" stroke-miterlimit="4"/></g></g><g clip-path="url(#a78b0f8e40)"><g clip-path="url(#68172ab207)"><path fill="#ffffff" d="M 744.292969 372.144531 L 768 372.144531 L 768 395.855469 L 744.292969 395.855469 Z M 744.292969 372.144531 " fill-opacity="1" fill-rule="nonzero"/></g></g><g clip-path="url(#f76d1af47a)"><g clip-path="url(#57e326b151)"><path stroke-linecap="butt" transform="matrix(0.75, 0, 0, 0.75, 744.291182, 372.145607)" fill="none" stroke-linejoin="miter" d="M 15.804467 -0.00143458 C 7.0753 -0.00143458 0.0023821 7.076691 0.0023821 15.805859 C 0.0023821 24.535027 7.0753 31.607944 15.804467 31.607944 C 24.533635 31.607944 31.611761 24.535027 31.611761 15.805859 C 31.611761 7.076691 24.533635 -0.00143458 15.804467 -0.00143458 Z M 15.804467 -0.00143458 " stroke="#a6a6a6" stroke-width="20" stroke-opacity="1" stroke-miterlimit="4"/></g></g></svg>