<svg xmlns="http://www.w3.org/2000/svg" xmlns:xlink="http://www.w3.org/1999/xlink" width="1024" zoomAndPan="magnify" viewBox="0 0 768 767.999994" height="1024" preserveAspectRatio="xMidYMid meet" version="1.0"><defs><clipPath id="73318c6059"><path d="M 384 0 C 171.921875 0 0 171.921875 0 384 C 0 596.078125 171.921875 768 384 768 C 596.078125 768 768 596.078125 768 384 C 768 171.921875 596.078125 0 384 0 Z M 384 0 " clip-rule="nonzero"/></clipPath><clipPath id="8ec5591027"><path d="M 337.796875 337.796875 L 430.203125 337.796875 L 430.203125 430.203125 L 337.796875 430.203125 Z M 337.796875 337.796875 " clip-rule="nonzero"/></clipPath><clipPath id="02ed3425e4"><path d="M 384 337.796875 C 358.484375 337.796875 337.796875 358.484375 337.796875 384 C 337.796875 409.515625 358.484375 430.203125 384 430.203125 C 409.515625 430.203125 430.203125 409.515625 430.203125 384 C 430.203125 358.484375 409.515625 337.796875 384 337.796875 Z M 384 337.796875 " clip-rule="nonzero"/></clipPath><clipPath id="2b11d03383"><path d="M 337.796875 337.796875 L 430.046875 337.796875 L 430.046875 430.046875 L 337.796875 430.046875 Z M 337.796875 337.796875 " clip-rule="nonzero"/></clipPath><clipPath id="dfe393398e"><path d="M 384 337.796875 C 358.484375 337.796875 337.796875 358.484375 337.796875 384 C 337.796875 409.515625 358.484375 430.199219 384 430.199219 C 409.515625 430.199219 430.199219 409.515625 430.199219 384 C 430.199219 358.484375 409.515625 337.796875 384 337.796875 Z M 384 337.796875 " clip-rule="nonzero"/></clipPath><clipPath id="3746eaa7ad"><path d="M 372.144531 687.445312 L 395.855469 687.445312 L 395.855469 736 L 372.144531 736 Z M 372.144531 687.445312 " clip-rule="nonzero"/></clipPath><clipPath id="2fba7e1325"><path d="M 384 687.445312 L 395.855469 736.011719 L 372.144531 736.011719 Z M 384 687.445312 " clip-rule="nonzero"/></clipPath><clipPath id="bc47b4a0aa"><path d="M 372.109375 736.007812 L 395.855469 736.007812 L 395.855469 752.570312 L 372.109375 752.570312 Z M 372.109375 736.007812 " clip-rule="nonzero"/></clipPath><clipPath id="31af3dc290"><path d="M 384 752.570312 L 372.144531 736.007812 L 395.855469 736.007812 Z M 384 752.570312 " clip-rule="nonzero"/></clipPath><clipPath id="ff65534df9"><path d="M 372 736.070312 L 395.851562 736.070312 L 395.851562 752.570312 L 372 752.570312 Z M 372 736.070312 " clip-rule="nonzero"/></clipPath><clipPath id="3b80a9847b"><path d="M 384 752.570312 L 372.148438 736.011719 L 395.851562 736.011719 Z M 384 752.570312 " clip-rule="nonzero"/></clipPath><clipPath id="c6647f410a"><path d="M 372.144531 744.292969 L 395.851562 744.292969 L 395.851562 768 L 372.144531 768 Z M 372.144531 744.292969 " clip-rule="nonzero"/></clipPath><clipPath id="cd76e88d70"><path d="M 395.851562 756.144531 C 395.851562 749.597656 390.542969 744.292969 383.996094 744.292969 C 377.449219 744.292969 372.144531 749.597656 372.144531 756.144531 C 372.144531 762.695312 377.449219 768 383.996094 768 C 390.542969 768 395.851562 762.695312 395.851562 756.144531 Z M 395.851562 756.144531 " clip-rule="nonzero"/></clipPath><clipPath id="b538a09fc5"><path d="M 372.144531 744.292969 L 395.851562 744.292969 L 395.851562 768 L 372.144531 768 Z M 372.144531 744.292969 " clip-rule="nonzero"/></clipPath><clipPath id="89e9715b1b"><path d="M 395.851562 756.144531 C 395.851562 749.597656 390.542969 744.292969 384 744.292969 C 377.453125 744.292969 372.144531 749.597656 372.144531 756.144531 C 372.144531 762.691406 377.453125 768 384 768 C 390.542969 768 395.851562 762.691406 395.851562 756.144531 Z M 395.851562 756.144531 " clip-rule="nonzero"/></clipPath></defs><g clip-path="url(#73318c6059)"><path stroke-linecap="butt" transform="matrix(0.75, 0, 0, 0.75, 0.000003, 0.00002)" fill="none" stroke-linejoin="miter" d="M 512.000021 -0.0000266667 C 229.229174 -0.0000266667 -0.000004 229.229151 -0.000004 511.999999 C -0.000004 794.770846 229.229174 1024.000024 512.000021 1024.000024 C 794.770869 1024.000024 1024.000047 794.770846 1024.000047 511.999999 C 1024.000047 229.229151 794.770869 -0.0000266667 512.000021 -0.0000266667 Z M 512.000021 -0.0000266667 " stroke="#eeeeee" stroke-width="50" stroke-opacity="1" stroke-miterlimit="4"/></g><g clip-path="url(#8ec5591027)"><g clip-path="url(#02ed3425e4)"><path fill="#ffffff" d="M 337.796875 337.796875 L 430.203125 337.796875 L 430.203125 430.203125 L 337.796875 430.203125 Z M 337.796875 337.796875 " fill-opacity="1" fill-rule="nonzero"/></g></g><g clip-path="url(#2b11d03383)"><g clip-path="url(#dfe393398e)"><path stroke-linecap="butt" transform="matrix(0.75, 0, 0, 0.75, 337.797701, 337.797718)" fill="none" stroke-linejoin="miter" d="M 61.603068 -0.00112465 C 27.582233 -0.00112465 -0.00110198 27.58221 -0.00110198 61.603045 C -0.00110198 95.62388 27.582233 123.202006 61.603068 123.202006 C 95.623903 123.202006 123.202029 95.62388 123.202029 61.603045 C 123.202029 27.58221 95.623903 -0.00112465 61.603068 -0.00112465 Z M 61.603068 -0.00112465 " stroke="#f5f5f5" stroke-width="32" stroke-opacity="1" stroke-miterlimit="4"/></g></g><g clip-path="url(#3746eaa7ad)"><g clip-path="url(#2fba7e1325)"><path fill="#737373" d="M 372.144531 687.445312 L 395.855469 687.445312 L 395.855469 735.972656 L 372.144531 735.972656 Z M 372.144531 687.445312 " fill-opacity="1" fill-rule="nonzero"/></g></g><g clip-path="url(#bc47b4a0aa)"><g clip-path="url(#31af3dc290)"><path fill="#737373" d="M 395.855469 752.570312 L 372.171875 752.570312 L 372.171875 736.007812 L 395.855469 736.007812 Z M 395.855469 752.570312 " fill-opacity="1" fill-rule="nonzero"/></g></g><g clip-path="url(#ff65534df9)"><g clip-path="url(#3b80a9847b)"><path stroke-linecap="butt" transform="matrix(-0.75, 0, 0, -0.75, 395.850629, 752.570431)" fill="none" stroke-linejoin="miter" d="M 15.800839 0.000157685 L 31.602924 22.078284 L -0.00124465 22.078284 Z M 15.800839 0.000157685 " stroke="#d9d9d9" stroke-width="8" stroke-opacity="1" stroke-miterlimit="4"/></g></g><g clip-path="url(#c6647f410a)"><g clip-path="url(#cd76e88d70)"><path fill="#ffffff" d="M 395.851562 744.292969 L 395.851562 768 L 372.144531 768 L 372.144531 744.292969 Z M 395.851562 744.292969 " fill-opacity="1" fill-rule="nonzero"/></g></g><g clip-path="url(#b538a09fc5)"><g clip-path="url(#89e9715b1b)"><path stroke-linecap="butt" transform="matrix(0, 0.75, -0.75, 0, 395.8518, 744.292015)" fill="none" stroke-linejoin="miter" d="M 15.803357 0.000316951 C 7.074189 0.000316951 0.00127144 7.078443 0.00127144 15.802402 C 0.00127144 24.53157 7.074189 31.609696 15.803357 31.609696 C 24.532524 31.609696 31.61065 24.53157 31.61065 15.802402 C 31.61065 7.078443 24.532524 0.000316951 15.803357 0.000316951 Z M 15.803357 0.000316951 " stroke="#a6a6a6" stroke-width="20" stroke-opacity="1" stroke-miterlimit="4"/></g></g></svg>